# xmcd
# 
# Track frame offsets:
#	150
#	19665
#	40243
#
# Disc length: 734 seconds
#
# Revision: 1
# Processed by: cddbd v1.4PL0 Copyright (c) Steve Scherf et al.
# Submitted via: Audio-CD-Archiv 2.10.441
#
DISCID=1a02dc03
DTITLE=Jon Spencer Blues Explosion - She Said (Maxi-CD)
DYEAR=1900
DGENRE=blues
TTITLE0=She Said
TTITLE1=Point Of View
TTITLE2=Do Ya Wanna Get It ?
EXTD=
EXTT0=
EXTT1=
EXTT2=
PLAYORDER=
